<?xml version="1.0" encoding="utf-8"?>
<!-- Generator: Adobe Illustrator 16.0.0, SVG Export Plug-In . SVG Version: 6.00 Build 0)  -->
<!DOCTYPE svg PUBLIC "-//W3C//DTD SVG 1.1//EN" "http://www.w3.org/Graphics/SVG/1.1/DTD/svg11.dtd">
<svg version="1.1" id="Layer_1" xmlns="http://www.w3.org/2000/svg" xmlns:xlink="http://www.w3.org/1999/xlink" x="0px" y="0px"
	 width="960px" height="560px" viewBox="0 0 960 560" enable-background="new 0 0 960 560" xml:space="preserve">
<g id="Base" display="none">
</g>
<g id="Logo">
	<circle id="Círculo" fill="#FFFFFF" cx="482.5" cy="277.5" r="194.5"/>
	<g>
		<path d="M411.965,403.569c-4.714-5.373-7.098-11.812-7.098-19.363c0-4.814,0.963-9.528,2.839-14.243
			c1.875-4.715,4.46-8.871,7.756-12.47l0.507,0.456c-4.866,6.641-7.299,13.636-7.299,21.087c0,6.641,2.078,12.773,6.184,18.451
			l1.217-1.166l0.659,0.558L411.965,403.569z"/>
		<path d="M443.594,393.888c-3.65,2.636-7.756,3.953-12.268,3.953c-4.814,0-8.363-1.621-10.746-4.865
			c-1.368-1.927-2.129-3.903-2.28-5.932l-0.102-1.57c-0.151-2.688,0.761-5.576,2.737-8.668c1.773-2.737,3.903-4.969,6.387-6.691
			l8.364-5.829c3.498,1.978,6.59,2.839,9.327,2.636l2.991-0.201l0.051,0.15l-7.451,5.83c6.032,1.875,9.073,5.17,9.073,9.985v0.254
			C449.677,387.299,447.649,390.948,443.594,393.888z M426.359,372.953c-2.18,2.129-3.294,5.069-3.294,8.771
			c0,3.192,0.861,5.931,2.585,8.16c0.558-0.354,0.812-0.912,0.812-1.673L426.359,372.953z M433.76,379.087
			c-0.709,0.202-1.471,0.559-2.281,1.015v2.989c0,2.23-0.457,3.751-1.369,4.563c-0.913,0.811-2.229,1.926-3.954,3.396
			c2.281,2.585,4.815,4.105,7.604,4.612V379.087z M431.53,368.543v10.088l8.517-6.793L431.53,368.543z M438.525,377.972
			c-1.267,0-2.483,0.201-3.648,0.607v5.119c2.077,1.014,3.853,1.521,5.221,1.521c1.47,0,3.192-0.559,5.221-1.674
			C444.76,380.05,442.123,377.972,438.525,377.972z M440.046,389.326c-1.269,0-2.991,0.354-5.171,1.064v5.321
			c4.056,0,7.249-1.773,9.581-5.321C442.935,389.681,441.465,389.326,440.046,389.326z M445.571,384.612
			c-2.18,0.963-4.055,1.47-5.626,1.47c-1.216,0-2.889-0.404-5.018-1.166v4.41c1.825-0.607,3.548-0.912,5.12-0.912
			c1.824,0,3.396,0.354,4.765,1.064c0.558-1.318,0.862-2.638,0.862-4.005L445.571,384.612z"/>
		<path d="M465.438,397.487c-2.18-1.166-3.244-2.991-3.244-5.475l-6.894,5.524h-0.253c-2.383-2.229-3.6-4.41-3.6-6.488
			c0-3.144,1.673-6.185,5.02-9.175l-2.434-6.337l0.659,0.051c1.875,0.152,3.65-0.507,5.221-1.977l7.198,2.382l1.419-1.114
			l0.103,0.202c-0.812,1.269-1.369,2.534-1.725,3.903v13.28c0.253,0.861,0.761,1.368,1.419,1.57l0.913-0.456l0.559,0.456
			L465.438,397.487z M462.193,378.731l-7.35-2.737l2.129,5.779l5.221,2.534V378.731z M462.243,385.22l-5.271-2.637
			c-0.963,1.725-1.47,3.396-1.47,4.969c0,2.28,0.963,4.409,2.939,6.387l3.802-3.244V385.22z"/>
		<path d="M482.365,397.437c-3.446-2.281-6.589-3.7-9.428-4.258c0.963-1.015,1.419-2.281,1.419-3.751v-12.471h-2.585v-2.586h2.585
			l0.102-3.244c0.051-1.672-0.607-3.243-1.977-4.663l0.152-0.151c1.217,0.457,2.28,1.014,3.143,1.673l0.76-0.051
			c1.471-1.673,3.093-2.534,4.866-2.534c-1.521,1.318-2.281,2.839-2.281,4.613v8.972l7.198-5.221c2.23,1.47,3.346,3.445,3.346,5.931
			v14.142C487.435,394.395,485.001,395.611,482.365,397.437z M485.052,379.796c-0.152-0.86-0.812-1.622-1.926-2.382l-4.006,2.99
			v10.493l5.932,2.636V379.796z"/>
		<path d="M504.059,380.202l-3.042-2.991l-1.978,1.521v13.129l2.737,2.129l1.47-1.064l0.608,0.608l-4.612,3.954
			c-1.927-1.673-4.105-2.94-6.487-3.853c0.911-0.762,1.367-1.978,1.367-3.649v-10.189c0-0.86-0.404-1.672-1.217-2.331l-0.86,0.559
			l-0.559-0.559l4.31-3.802c1.063,0.559,1.773,1.064,2.18,1.521c0.507,0.558,0.861,1.368,1.014,2.433l5.12-3.902l3.294,3.6
			L504.059,380.202z"/>
		<path d="M512.723,397.589c-2.28-1.217-3.345-2.939-3.193-5.119l0.051-0.912v-13.23l-1.47-1.571l3.751-3.092l3.903,3.244
			l-1.269,1.419v14.041c0.152,0.659,0.608,1.217,1.42,1.622l0.912-0.608l0.508,0.456L512.723,397.589z M511.709,371.382h-0.658
			l1.216-5.17h3.751L511.709,371.382z"/>
		<path d="M525.191,386.842v5.272l4.259,1.875l3.346-2.129l0.558,0.608c-0.861,0.558-1.773,1.165-2.787,1.876l-4.41,3.092
			c-2.229-1.217-4.563-2.078-6.995-2.534c0.963-1.015,1.419-2.23,1.419-3.701v-13.534c2.332-1.063,4.612-2.433,6.844-4.004
			l6.539,6.539C530.261,382.787,527.37,384.967,525.191,386.842z M525.142,376.958v8.72l4.815-3.803L525.142,376.958z"/>
		<path d="M542.93,397.487c-1.622-1.42-4.004-2.688-7.197-3.854c0.861-0.963,1.317-2.18,1.317-3.648V369.76
			c0-1.015-0.559-2.078-1.673-3.244c1.268,0.304,2.383,0.86,3.346,1.622l0.558-0.052c1.571-1.47,3.347-2.332,5.222-2.585
			c-1.674,1.218-2.483,2.737-2.483,4.612v21.341l3.7,2.332l1.217-0.913l0.608,0.659L542.93,397.487z"/>
		<path d="M558.085,391.15c-1.875,4.664-4.41,8.82-7.654,12.47l-0.608-0.607c4.767-6.538,7.147-13.483,7.147-20.885
			c0-6.59-2.027-12.772-6.032-18.502l-1.216,1.217l-0.659-0.558l4.765-6.691c4.715,5.323,7.047,11.762,7.047,19.364
			C560.872,381.773,559.961,386.487,558.085,391.15z"/>
	</g>
	<path id="Cabeça" fill="#ED1B24" d="M532.75,247.5c0,0-14.55,14.352-26.888,14.772c-7.306,0.249-9.112-6.772-16.112-19.772
		c-4.024-7.473,0.875-12.25-5.5-33.5c0,0-40.5,16.5,2.75,58.5c0,0-24.75,0.25-29.5-19.25c0,0-3,6.75-2.5,8.25
		c0,0-10.25-5.75-8-27.75c0,0-7,8.75-7.75,9.5c0,0-8-26.5,14-32.5c0,0-13.24-2.345-12.25-3.5c26.25-30.625,41.142-13.749,42-14.75
		c5.488-6.403,11.658-6.582,11.658-6.582c-41.5-12.25-18.783-38.543-61.658-39.919c0,0,8.875-17.5,45.75,12.625
		c3.143,2.567,7.71,4.499,12.375,6.875c14.304,7.285,36.625-1.875,43.5,13.5c0,0-7.5-3.5-13.125,0.375c0,0,4.625,5.188,20.75,8.125
		c1.566,0.286-29.063-47.228-26.875-45c15.319,15.601,20.625,36.167,50.25,52.25c0,0,4.625-2.25,6.375-4.375c0,0,1.375,10,8.75,10
		c0,0,5.375,14-16.625,25.625c0,0,10-29.25-9.875-11c0,0,0.5-10.125-8.625-13.625c0,0-8,7.25-8.625,8.875
		c0,0-3.875-13.875-11.375-13c0,0-39.125,10.25-16.75,37.5C508.875,229.75,487.875,259.375,532.75,247.5z"/>
	<path id="Língua" fill="#F21824" d="M513.5,207.167c0,0,22.166,4.167,6.5,36.5l-10.834,1C521.166,221.5,498.5,219.5,513.5,207.167
		z"/>
	<path id="Costas" fill="#ED1B24" d="M476.5,176c-33.168-11-88.834,49.917-8.5,96.5c27.648,16.033,93-5,95.5,85
		c0,0-55.337-49.75-37.5-13c0,0-18.168-4.333-23.5-13.333c0,0-3.335,11,4.5,16c0,0-30-5.834-35.834-26.667
		c0,0-8.834,17.333,3.334,31c0,0-41-6.666-41.5-59.166c0,0-15.834,24.668,3.166,61.5c0,0-56.166-32.5-28.5-109.167
		c0,0-7.888,1.143-12.666,7.833c-3.75,5.25-6.668,18.167-6.668,18.167c-16.582-59.667,36.568-72.628,34-75.333
		c-19.311-20.343-32.563-3.937-25.332-10C436.75,152,476.5,176,476.5,176z"/>
	<path id="costas" fill="#FFFFFF" d="M424,250.333c-0.479-3.766,17.444,31.192,41.332,36.667c64,14.667,69.267,32.901,66.334,31
		C498.765,296.667,433,321.333,424,250.333z"/>
	<circle id="Pomo" fill="#ED1D1C" cx="410.666" cy="416" r="3.667"/>
	<polygon id="cabo" fill="#F21E1D" points="439,418.75 415,418.5 415,414.5 439,414 	"/>
	<path id="Guarda-mão" fill="#D81A1A" d="M443.75,401.563c0,0,1.625,1,2.438,1.25c0,0-1.424,1.731-2,4.438
		c-0.255,1.197-1,12.065,0.375,19.315c0.069,0.363,0.831,2.096,1.625,3.686c0,0-1.625,0.125-2.875,0.375
		C443.313,430.625,437.938,415.125,443.75,401.563z"/>
	<polygon id="Lamina" fill="#F21E1D" points="445,411.5 549.063,413.375 566.344,416.5 548.797,420.125 445,421.375 445,417 
		539.498,416.438 445,415.625 	"/>
	<g>
		<path d="M469.818,444.219c-0.515,0.077-1.082,0.129-1.7,0.129c-1.364,0-2.601-0.283-3.734-0.824
			c-1.21-0.618-2.163-1.494-2.808-2.602c-0.695-1.236-1.056-2.627-1.056-4.146c0-1.777,0.438-3.399,1.313-4.843
			c0.953-1.546,2.216-2.575,3.839-3.116c-2.086,1.727-3.117,3.813-3.117,6.312c0,1.545,0.515,3.013,1.571,4.403
			c0.231-0.438,0.36-1.106,0.36-1.958v-6.13l4.997-4.225c1.623,0.979,3.323,1.469,5.048,1.469l-2.215,2.421
			c-1.108-0.438-2.292-0.876-3.529-1.288v12.209c0.283,0,0.953,0.129,1.236,0.129c1.082,0,2.138-0.335,3.142-1.005
			c0.104-0.077,0.695-0.515,1.804-1.339l0.128,0.025C473.81,442.39,472.059,443.858,469.818,444.219z M468.169,429.408l-1.108,0.901
			v4.843c0,1.004-0.231,1.854-0.695,2.603c-0.359,0.565-1.004,1.235-1.905,2.033c0.9,1.058,2.138,1.777,3.709,2.164V429.408z"/>
		<path d="M477.363,444.219c-0.747-0.593-1.365-1.263-1.88-2.009l2.035-1.958c0.824,0.952,1.468,1.622,1.958,2.061L477.363,444.219z
			"/>
		<path d="M499.385,444.348c-1.263-0.489-1.88-1.546-1.88-3.168l-0.026-10.87l-1.854-1.364l-0.517,0.257v5.409h1.313l-1.34,1.88
			v4.456l0.593-0.438l0.36,0.412l-3.863,3.426c-0.979-1.058-1.854-1.854-2.603-2.422v-0.205c0.232-0.182,0.361-0.335,0.438-0.412
			c0.129-0.181,0.206-0.361,0.206-0.593l-0.026-4.226h-2.833v4.817c0,1.674-0.566,2.885-1.7,3.58
			c-0.565,0.359-1.158,0.541-1.776,0.541c-0.077,0-0.799-0.104-2.111-0.284c-0.231-0.025-0.438-0.051-0.593-0.051
			c-0.824,0-1.442,0.386-1.854,1.133h-0.154c0-1.674,0.695-2.653,2.087-2.938c1.776-0.386,2.834-0.823,3.116-1.313
			c0.181-0.412,0.283-0.824,0.283-1.236c0-1.339-0.824-2.704-2.035-3.091c-0.282-0.129-0.565-0.18-0.875-0.18
			c-0.284,0-0.748,0.103-1.366,0.309c0.336-1.52,1.186-2.112,2.808-2.317c0-2.757,1.03-4.714,3.091-5.82l4.61-2.499
			c1.107,0.722,1.804,1.647,2.035,2.808l4.25-2.729l2.679,1.829l1.005-0.747l0.283,0.206c-0.335,0.464-0.566,0.799-0.695,1.029
			c-0.206,0.388-0.31,0.772-0.31,1.186v10.02c0,0.929,0.206,1.393,0.617,1.393c0.182,0,0.36-0.129,0.566-0.361l0.335,0.335
			L499.385,444.348z M487.228,429.743c-1.133,0.929-1.468,1.648-1.468,3.168v6.903c0,1.494-0.517,2.523-1.571,3.116
			c0.464,0.154,0.824,0.23,1.056,0.23c1.082,0,1.623-0.669,1.623-2.009v-9.581c0-0.593,0.154-1.159,0.438-1.752L487.228,429.743z
			 M488.593,429.022c-0.851,0.798-1.263,1.699-1.263,2.704v4.404l1.03-1.521h1.828l0.026-4.456
			C490.216,429.408,489.675,429.022,488.593,429.022z M494.568,429.614l-1.674,1.134l0.025,3.863h1.647L494.568,429.614
			L494.568,429.614z M494.568,436.491h-1.647l-0.025,4.327c0,0.646,0.283,1.082,0.85,1.314l0.824-0.747L494.568,436.491
			L494.568,436.491z"/>
		<path d="M504.304,444.219c-0.747-0.593-1.365-1.263-1.881-2.009l2.034-1.958c0.824,0.952,1.469,1.622,1.957,2.061L504.304,444.219
			z"/>
	</g>
</g>
</svg>
